# xmcd
#
# Track frame offsets:
#	150
#	15499
#	30917
#	44065
#	57567
#	84599
#	101176
#	121262
#	133719
#	149954
#	165493
#	181701
#	197756
#
# Disc length: 2875 seconds
#
# Revision: 1
# Processed by: cddbd v1.4PL0 Copyright (c) Steve Scherf et al.
# Submitted via: audiograbber 1.81.01
#
DISCID=b60b390d
DTITLE=W.C. Clark - From Austin With Soul
DYEAR=2002
DGENRE=Blues
TTITLE0=Snatching It Back
TTITLE1=Midnight Hour Blues
TTITLE2=I've Been Searching
TTITLE3=Don't Mess Up A Good Thing
TTITLE4=How Long  Is A Heartache Supposed To Last?
TTITLE5=Bitchy Men
TTITLE6=Let It Rain
TTITLE7=Got Me Where You Want Me
TTITLE8=Got To Find A Lover
TTITLE9=Get Out Of My Life, Woman
TTITLE10=I'm Gonna Disappear
TTITLE11=Real Live Livin' Hurtin' Man
TTITLE12=I Keep Hanging On
EXTD=
EXTT0=
EXTT1=
EXTT2=
EXTT3=
EXTT4=
EXTT5=
EXTT6=
EXTT7=
EXTT8=
EXTT9=
EXTT10=
EXTT11=
EXTT12=
PLAYORDER=
